<?xml version="1.0" encoding="UTF-8"?>
<svg width="46px" height="46px" viewBox="0 0 46 46" version="1.1" xmlns="http://www.w3.org/2000/svg" xmlns:xlink="http://www.w3.org/1999/xlink">
    <!-- Generator: Sketch 49.2 (51160) - http://www.bohemiancoding.com/sketch -->
    <title>btn_delete</title>
    <desc>Created with Sketch.</desc>
    <defs></defs>
    <g id="Welcome" stroke="none" stroke-width="1" fill="none" fill-rule="evenodd">
        <g id="6-CAT-CONFIG" transform="translate(-1313.000000, -752.000000)">
            <g id="RESULT" transform="translate(252.000000, 652.000000)">
                <g id="1" transform="translate(2.000000, 100.000000)">
                    <g id="btn_delete" transform="translate(1059.000000, 0.000000)">
                        <circle id="Oval-2" fill="#FF3C07" cx="23" cy="23" r="23"></circle>
                        <g id="paper-bucket" transform="translate(14.000000, 10.000000)" fill="#FFFFFF" fill-rule="nonzero">
                            <path d="M18.1982637,0.749920424 L12.5956858,0.749920424 C12.5555619,0.329066795 12.2138589,0 11.7981437,0 L7.20178203,0 C6.78602978,0 6.44440103,0.329066795 6.4042771,0.749920424 L0.801699197,0.749920424 C0.358888353,0.749920424 0,1.12297082 0,1.58337111 L0,3.16662648 C0,3.62706535 0.358888353,4 0.801699197,4 L18.1983008,4 C18.6411116,4 19,3.62702677 19,3.16662648 L19,1.58340969 C18.9999629,1.12297082 18.6410745,0.749920424 18.1982637,0.749920424 Z" id="Shape"></path>
                            <path d="M0,6 L0,25.0746584 C0,25.5854192 0.436035707,26 0.97403405,26 L18.0261463,26 C18.5643251,26 19,25.5855477 19,25.0746584 L19,6 L0,6 Z M7.13120637,20.3165972 C7.13120637,20.8799249 6.65039008,21.3368335 6.0574645,21.3368335 C5.46422324,21.3368335 4.98372262,20.8799678 4.98372262,20.3165972 L4.98372262,10.2030448 C4.98372262,9.63971699 5.46422324,9.18297978 6.0574645,9.18297978 C6.65039008,9.18297978 7.13120637,9.63975983 7.13120637,10.2030448 L7.13120637,20.3165972 Z M14.0166832,20.3165972 C14.0166832,20.8799249 13.535867,21.3368335 12.942761,21.3368335 C12.349655,21.3368335 11.8690191,20.8799678 11.8690191,20.3165972 L11.8690191,10.2030448 C11.8690191,9.63971699 12.3497001,9.18297978 12.942761,9.18297978 C13.5358219,9.18297978 14.0166832,9.63975983 14.0166832,10.2030448 L14.0166832,20.3165972 Z" id="Shape"></path>
                        </g>
                    </g>
                </g>
            </g>
        </g>
    </g>
</svg>