<?xml version="1.0" encoding="UTF-8"?>
<svg width="46px" height="43px" viewBox="0 0 46 43" version="1.1" xmlns="http://www.w3.org/2000/svg" xmlns:xlink="http://www.w3.org/1999/xlink">
    <!-- Generator: Sketch 49.2 (51160) - http://www.bohemiancoding.com/sketch -->
    <title>ic_add_manual</title>
    <desc>Created with Sketch.</desc>
    <defs></defs>
    <g id="Welcome" stroke="none" stroke-width="1" fill="none" fill-rule="evenodd">
        <g id="9-ADD-NEW-TRANS" transform="translate(-498.000000, -475.000000)" fill="#3E3E3E" fill-rule="nonzero">
            <g id="BROWSE" transform="translate(253.000000, 418.000000)">
                <g id="ic_add_manual" transform="translate(245.000000, 57.000000)">
                    <path d="M9.36064063,16.6979435 L18.7659336,16.6979435 L18.7659336,16.6978536 C20.8849883,16.6978536 22.6099883,18.4204623 22.6172656,20.5405962 C22.6190625,21.0688305 23.3828242,21.0529979 23.3828242,20.554 C23.3828242,18.427659 25.1105195,16.6977636 27.2341562,16.6977636 L36.6394492,16.6977636 C36.9433906,16.6977636 37.1896523,16.4510983 37.1896523,16.1468598 L37.1896523,1.6681841 C37.1896523,0.755468619 36.4506875,0.0155627615 35.5391328,0.0155627615 L10.460957,0.0155627615 C9.54940234,0.0155627615 8.8104375,0.755468619 8.8104375,1.6681841 L8.8104375,16.1471297 C8.8104375,16.4512782 9.05669922,16.6979435 9.36064063,16.6979435 Z M16.0973047,4.80709414 L29.9027852,4.80709414 C30.5103984,4.80709414 31.0031914,5.30033473 31.0031914,5.90890167 C31.0031914,6.51746862 30.5104883,7.01070921 29.9027852,7.01070921 L16.0973047,7.01070921 C15.4896016,7.01070921 14.9968984,6.51746862 14.9968984,5.90890167 C14.9969883,5.30033473 15.4896016,4.80709414 16.0973047,4.80709414 Z M16.0973047,11.0279707 L26.6241172,11.0279707 C27.2318203,11.0279707 27.7245234,11.5212113 27.7245234,12.1297782 C27.7245234,12.7383452 27.2318203,13.2315858 26.6241172,13.2315858 L16.0973047,13.2315858 C15.4896016,13.2315858 14.9968984,12.7383452 14.9968984,12.1297782 C14.9968984,11.5212113 15.4896016,11.0279707 16.0973047,11.0279707 Z" id="Shape"></path>
                    <path d="M38.3289609,18.9013787 L27.2340664,18.9013787 C26.3225117,18.9013787 25.5835469,19.6413745 25.5835469,20.554 C25.5835469,23.9711506 20.416543,23.9711506 20.416543,20.554 C20.416543,19.6412845 19.6775781,18.9013787 18.7660234,18.9013787 L7.67103906,18.9013787 C6.75948438,18.9013787 6.02051953,19.6413745 6.02051953,20.554 L6.02051953,38.020636 C6.02051953,40.7577029 8.24451172,42.9844372 10.9780078,42.9844372 L35.0219922,42.9844372 C37.755668,42.9844372 39.9795703,40.757613 39.9795703,38.020636 L39.9795703,20.55409 C39.9795703,19.6413745 39.2405156,18.9013787 38.3289609,18.9013787 Z M19.1414805,28.7334456 L20.8577656,28.7334456 C21.4654688,28.7334456 21.9581719,29.2266862 21.9581719,29.8352531 C21.9581719,30.4438201 21.4655586,30.9370607 20.8577656,30.9370607 L19.1414805,30.9370607 C18.5337773,30.9370607 18.0410742,30.4438201 18.0410742,29.8352531 C18.0410742,29.2266862 18.5337773,28.7334456 19.1414805,28.7334456 Z M14.856832,35.9463808 L13.1405469,35.9463808 C12.5328437,35.9463808 12.0401406,35.4531402 12.0401406,34.8445732 C12.0401406,34.2360962 12.5327539,33.7427657 13.1405469,33.7427657 L14.856832,33.7427657 C15.4645352,33.7427657 15.9572383,34.2360063 15.9572383,34.8445732 C15.9572383,35.4531402 15.464625,35.9463808 14.856832,35.9463808 Z M14.856832,30.9369707 L13.1405469,30.9369707 C12.5328437,30.9369707 12.0401406,30.4437301 12.0401406,29.8351632 C12.0401406,29.2265962 12.5327539,28.7333556 13.1405469,28.7333556 L14.856832,28.7333556 C15.4645352,28.7333556 15.9572383,29.2265962 15.9572383,29.8351632 C15.9572383,30.4437301 15.464625,30.9369707 14.856832,30.9369707 Z M26.8586094,35.9463808 L19.1414805,35.9463808 C18.5337773,35.9463808 18.0410742,35.4531402 18.0410742,34.8445732 C18.0410742,34.2360962 18.5336875,33.7427657 19.1414805,33.7427657 L26.8586094,33.7427657 C27.4663125,33.7427657 27.9590156,34.2360063 27.9590156,34.8445732 C27.9590156,35.4531402 27.4662227,35.9463808 26.8586094,35.9463808 Z M26.8586094,30.9369707 L25.1422344,30.9369707 C24.5346211,30.9369707 24.0418281,30.4437301 24.0418281,29.8351632 C24.0418281,29.2265962 24.5345313,28.7333556 25.1422344,28.7333556 L26.8586094,28.7333556 C27.4663125,28.7333556 27.9590156,29.2265962 27.9590156,29.8351632 C27.9590156,30.4437301 27.4662227,30.9369707 26.8586094,30.9369707 Z M32.8594531,35.9463808 L31.1430781,35.9463808 C30.5354648,35.9463808 30.0426719,35.4531402 30.0426719,34.8445732 C30.0426719,34.2360962 30.535375,33.7427657 31.1430781,33.7427657 L32.8594531,33.7427657 C33.4670664,33.7427657 33.9598594,34.2360063 33.9598594,34.8445732 C33.9598594,35.4531402 33.4672461,35.9463808 32.8594531,35.9463808 Z M32.8594531,30.9369707 L31.1430781,30.9369707 C30.5354648,30.9369707 30.0426719,30.4437301 30.0426719,29.8351632 C30.0426719,29.2265962 30.535375,28.7333556 31.1430781,28.7333556 L32.8594531,28.7333556 C33.4670664,28.7333556 33.9598594,29.2265962 33.9598594,29.8351632 C33.9598594,30.4437301 33.4672461,30.9369707 32.8594531,30.9369707 Z" id="Shape"></path>
                    <path d="M44.3494805,18.9012887 L42.7304961,18.9012887 C42.4266445,18.9012887 42.180293,19.147954 42.180293,19.4521925 L42.180293,30.9369707 C42.180293,31.2412992 42.4266445,31.4878745 42.7304961,31.4878745 L44.3494805,31.4878745 C45.2610352,31.4878745 46,30.7479686 46,29.8352531 L46,20.554 C46,19.6412845 45.2610352,18.9012887 44.3494805,18.9012887 Z" id="Shape"></path>
                    <path d="M3.64603906,18.9012887 L1.65051953,18.9012887 C0.738964844,18.9012887 0,19.6412845 0,20.554 L0,29.8352531 C0,30.7479686 0.738964844,31.4878745 1.65051953,31.4878745 L3.64603906,31.4878745 C3.94989063,31.4878745 4.19624219,31.2412992 4.19624219,30.9369707 L4.19624219,19.4521925 C4.19624219,19.147954 3.94998047,18.9012887 3.64603906,18.9012887 Z" id="Shape"></path>
                </g>
            </g>
        </g>
    </g>
</svg>