<?xml version="1.0" encoding="UTF-8"?>
<svg width="33px" height="44px" viewBox="0 0 33 44" version="1.1" xmlns="http://www.w3.org/2000/svg" xmlns:xlink="http://www.w3.org/1999/xlink">
    <!-- Generator: Sketch 49.2 (51160) - http://www.bohemiancoding.com/sketch -->
    <title>ic_add_fromfile</title>
    <desc>Created with Sketch.</desc>
    <defs></defs>
    <g id="Welcome" stroke="none" stroke-width="1" fill="none" fill-rule="evenodd">
        <g id="9-ADD-NEW-TRANS" transform="translate(-1081.000000, -475.000000)" fill="#3E3E3E">
            <g id="BROWSE" transform="translate(253.000000, 418.000000)">
                <path d="M856.769714,84 C856.940571,84.5 857,84.5 857,85 L857,87.5 C857,88 856.940571,88.5 856.769714,88.5 C856.595143,88.5 856.342571,89 856.071429,89 L842.142857,89 L831.928571,89 C831.657429,89 831.404857,88.5 831.230286,88.5 C831.055714,88.5 831,88 831,87.5 L831,85 C831,84.5 831.055714,84.5 831.230286,84 L831.928571,84 L842.142857,84 L856.071429,84 L856.769714,84 Z M842.142857,77 L856.071429,77 L856.769714,77 C856.940571,77.5 857,77.5 857,78 L857,80.5 C857,81 856.940571,81.5 856.769714,81.5 C856.595143,81.5 856.342571,82 856.071429,82 L842.142857,82 L831.928571,82 C831.657429,82 831.404857,81.5 831.230286,81.5 C831.055714,81.5 831,81 831,80.5 L831,78 C831,77.5 831.055714,77.5 831.230286,77 L831.928571,77 L842.142857,77 Z M856.769714,93 C856.940571,93.5 857,93.5 857,94 L857,96.5 C857,97 856.940571,97.5 856.769714,97.5 C856.595143,97.5 856.342571,98 856.071429,98 L842.142857,98 L831.928571,98 C831.657429,98 831.404857,97.5 831.230286,97.5 C831.055714,97.5 831,97 831,96.5 L831,94 C831,93.5 831.055714,93.5 831.230286,93 L831.928571,93 L842.142857,93 L856.071429,93 L856.769714,93 Z M861,93 L861,101 L842.666667,101 L828,101 L828,93 L828,57 L842.666667,57 L846.333333,57 L846.333333,69.8 C846.333333,70.6 846.601,71.4 847.136333,71.8 C847.671667,72.6 848.320667,73 849.083333,73 L861,73 L861,93 Z M851,57 C851.513955,57.4 851.850919,57.4 852.061947,57.8 L860.360109,67.4 C860.571137,67.8 860.819605,68.2 861,69 L851,69 L851,57 Z" id="ic_add_fromfile"></path>
            </g>
        </g>
    </g>
</svg>