<?xml version="1.0" encoding="UTF-8"?>
<svg width="28px" height="20px" viewBox="0 0 28 20" version="1.1" xmlns="http://www.w3.org/2000/svg" xmlns:xlink="http://www.w3.org/1999/xlink">
    <!-- Generator: Sketch 49.2 (51160) - http://www.bohemiancoding.com/sketch -->
    <title>ic_contributor_keyboard</title>
    <desc>Created with Sketch.</desc>
    <defs></defs>
    <g id="Welcome" stroke="none" stroke-width="1" fill="none" fill-rule="evenodd">
        <g id="2-LANG-CONTRIBUTOR" transform="translate(-299.000000, -1317.000000)" fill="#9B9B9B">
            <g id="Source" transform="translate(253.000000, 771.000000)">
                <path d="M71.2,546 L48.8,546 C47.26,546 46.014,547.285714 46.014,548.857143 L46,563.142857 C46,564.714286 47.26,566 48.8,566 L71.2,566 C72.74,566 74,564.714286 74,563.142857 L74,548.857143 C74,547.285714 72.74,546 71.2,546 L71.2,546 Z M58.6,550.285714 L61.4,550.285714 L61.4,553.142857 L58.6,553.142857 L58.6,550.285714 L58.6,550.285714 Z M58.6,554.571429 L61.4,554.571429 L61.4,557.428571 L58.6,557.428571 L58.6,554.571429 L58.6,554.571429 Z M54.4,550.285714 L57.2,550.285714 L57.2,553.142857 L54.4,553.142857 L54.4,550.285714 L54.4,550.285714 Z M54.4,554.571429 L57.2,554.571429 L57.2,557.428571 L54.4,557.428571 L54.4,554.571429 L54.4,554.571429 Z M53,557.428571 L50.2,557.428571 L50.2,554.571429 L53,554.571429 L53,557.428571 L53,557.428571 Z M53,553.142857 L50.2,553.142857 L50.2,550.285714 L53,550.285714 L53,553.142857 L53,553.142857 Z M65.6,563.142857 L54.4,563.142857 L54.4,560.285714 L65.6,560.285714 L65.6,563.142857 L65.6,563.142857 Z M65.6,557.428571 L62.8,557.428571 L62.8,554.571429 L65.6,554.571429 L65.6,557.428571 L65.6,557.428571 Z M65.6,553.142857 L62.8,553.142857 L62.8,550.285714 L65.6,550.285714 L65.6,553.142857 L65.6,553.142857 Z M69.8,557.428571 L67,557.428571 L67,554.571429 L69.8,554.571429 L69.8,557.428571 L69.8,557.428571 Z M69.8,553.142857 L67,553.142857 L67,550.285714 L69.8,550.285714 L69.8,553.142857 L69.8,553.142857 Z" id="ic_contributor_keyboard"></path>
            </g>
        </g>
    </g>
</svg>