<?xml version="1.0" encoding="UTF-8"?>
<svg width="36px" height="36px" viewBox="0 0 36 36" version="1.1" xmlns="http://www.w3.org/2000/svg" xmlns:xlink="http://www.w3.org/1999/xlink">
    <!-- Generator: Sketch 49.2 (51160) - http://www.bohemiancoding.com/sketch -->
    <title>ic_email</title>
    <desc>Created with Sketch.</desc>
    <defs>
        <path d="M40,15 C30.064,15 22,23.064 22,33 C22,42.936 30.064,51 40,51 C49.936,51 58,42.936 58,33 C58,23.064 49.936,15 40,15 L40,15 Z M40,20.4 C42.988,20.4 45.4,22.812 45.4,25.8 C45.4,28.788 42.988,31.2 40,31.2 C37.012,31.2 34.6,28.788 34.6,25.8 C34.6,22.812 37.012,20.4 40,20.4 L40,20.4 Z M40,45.96 C35.5,45.96 31.522,43.656 29.2,40.164 C29.254,36.582 36.4,34.62 40,34.62 C43.582,34.62 50.746,36.582 50.8,40.164 C48.478,43.656 44.5,45.96 40,45.96 L40,45.96 Z" id="path-1"></path>
    </defs>
    <g id="Welcome" stroke="none" stroke-width="1" fill="none" fill-rule="evenodd">
        <g id="1-Login_2" transform="translate(-1115.000000, -588.000000)">
            <g id="form" transform="translate(1093.000000, 573.000000)">
                <mask id="mask-2" fill="white">
                    <use xlink:href="#path-1"></use>
                </mask>
                <use id="ic_email" fill="#FFFFFF" xlink:href="#path-1"></use>
            </g>
        </g>
    </g>
</svg>