<?xml version="1.0" encoding="UTF-8"?>
<svg width="25px" height="19px" viewBox="0 0 25 19" version="1.1" xmlns="http://www.w3.org/2000/svg" xmlns:xlink="http://www.w3.org/1999/xlink">
    <!-- Generator: Sketch 49.2 (51160) - http://www.bohemiancoding.com/sketch -->
    <title>ic_hide</title>
    <desc>Created with Sketch.</desc>
    <defs>
        <polygon id="path-1" points="0 0.00800714286 22.8952238 0.00800714286 22.8952238 19 0 19"></polygon>
    </defs>
    <g id="Welcome" stroke="none" stroke-width="1" fill="none" fill-rule="evenodd">
        <g id="1-Login_2" transform="translate(-1481.000000, -707.000000)">
            <g id="form" transform="translate(1093.000000, 573.000000)">
                <g id="ic_hide" transform="translate(388.000000, 134.000000)">
                    <g id="Group-3">
                        <mask id="mask-2" fill="white">
                            <use xlink:href="#path-1"></use>
                        </mask>
                        <g id="Clip-2"></g>
                        <path d="M14.6134006,6.56857143 C14.5601079,6.61756429 14.4071018,6.6082 14.3214128,6.57495 C12.5227848,5.87561429 10.5756384,6.83077143 10.0020409,8.50412857 C9.75338841,9.22925 9.76755305,9.94989286 10.0662726,10.6576429 C10.1368152,10.8247071 10.129803,10.9331429 9.98563232,11.06655 C9.50249207,11.5135929 9.03590061,11.9773286 8.56201646,12.4357714 C7.3444189,10.9042357 7.11946768,8.16742143 8.86185793,6.13347143 C10.7827787,3.89106429 13.9893152,3.65288571 16.1471079,5.10855714 C15.6297482,5.60513571 15.1289372,6.09438571 14.6134006,6.56857143 M21.4021872,0.00800714286 C20.6645043,0.722814286 19.9036811,1.45336429 19.1533762,2.19382143 C19.0230896,2.32234286 18.9277238,2.33360714 18.7615348,2.2572 C17.2511079,1.56302143 15.6552726,1.15981429 13.990297,1.05395714 C12.6795774,0.970492857 11.3720835,1.06250714 10.091236,1.36094286 C7.67371159,1.92415714 5.55925427,3.0438 3.72233963,4.66097143 C2.22327256,5.98038571 1.03007744,7.52562857 0.0800652439,9.25367857 C-0.0232945122,9.44164286 -0.0289042683,9.58265 0.0765591463,9.77441429 C1.10132134,11.6388571 2.40727256,13.2858857 4.07533354,14.6547 C4.46563232,14.9747143 4.87304085,15.2751857 5.2881628,15.5968286 C4.60727866,16.2546357 3.93004085,16.9087786 3.26837012,17.5479929 C3.78460793,18.0487786 4.27952866,18.5289357 4.76519329,19 C10.8102665,13.1500357 16.8674006,7.2884 22.8952238,1.45499286 C22.4130652,0.987728571 21.9130957,0.503228571 21.4021872,0.00800714286" id="Fill-1" fill="#FFFFFF" mask="url(#mask-2)"></path>
                    </g>
                    <path d="M24.939013,9.43265674 C24.3019583,8.21947625 23.5346947,7.09485004 22.6177179,6.07493963 C22.2874878,5.70749941 21.9119268,5.38026257 21.5215694,5 C21.4661499,5.07225924 21.4183977,5.15092964 21.3549075,5.21410639 C20.2568758,6.30747814 19.1654353,7.40752818 18.0515311,8.48473844 C17.7609825,8.76576142 17.5454922,9.02688306 17.6917081,9.4501539 C17.7145754,9.51640266 17.7015276,9.59627516 17.6991064,9.66946936 C17.6422073,11.4337434 16.9243101,12.8667736 15.4776201,13.9008421 C14.4323176,14.6480106 13.2570753,14.9962173 11.9578118,14.83901 C11.7627676,14.8153689 11.6243535,14.8674596 11.4823075,15.0115774 C10.7170616,15.7881304 9.93917151,16.552529 9.16598935,17.3214688 C9.10909025,17.3781008 9.05528495,17.4376713 9,17.4959061 C9.00269026,17.5252906 9.00551504,17.5545416 9.00833982,17.5837925 C9.86263347,17.7152215 10.7127572,17.9003441 11.5721624,17.9649901 C12.8273055,18.0595548 14.0821796,17.9631201 15.3109581,17.6687405 C17.6377683,17.1112358 19.6712051,16.0039732 21.4372296,14.4051875 C22.8856683,13.0939695 24.0338734,11.5559564 24.9446626,9.8369612 C25.0229493,9.68910357 25.015551,9.57837731 24.939013,9.43265674" id="Fill-4" fill="#FFFFFF"></path>
                </g>
            </g>
        </g>
    </g>
</svg>