<?xml version="1.0" encoding="UTF-8"?>
<svg width="22px" height="29px" viewBox="0 0 22 29" version="1.1" xmlns="http://www.w3.org/2000/svg" xmlns:xlink="http://www.w3.org/1999/xlink">
    <!-- Generator: Sketch 49.2 (51160) - http://www.bohemiancoding.com/sketch -->
    <title>ic_import_file</title>
    <desc>Created with Sketch.</desc>
    <defs></defs>
    <g id="Welcome" stroke="none" stroke-width="1" fill="none" fill-rule="evenodd">
        <g id="4-HOME" transform="translate(-285.000000, -696.000000)" fill="#9B9B9B">
            <g id="BROWSE" transform="translate(252.000000, 434.000000)">
                <g id="1" transform="translate(2.000000, 236.000000)">
                    <path d="M49.8494286,44 C49.9611429,44.3 50,44.3 50,44.6 L50,46.1 C50,46.4 49.9611429,46.7 49.8494286,46.7 C49.7352857,46.7 49.5701429,47 49.3928571,47 L40.2857143,47 L33.6071429,47 C33.4298571,47 33.2647143,46.7 33.1505714,46.7 C33.0364286,46.7 33,46.4 33,46.1 L33,44.6 C33,44.3 33.0364286,44.3 33.1505714,44 L33.6071429,44 L40.2857143,44 L49.3928571,44 L49.8494286,44 Z M40.2857143,39 L49.3928571,39 L49.8494286,39 C49.9611429,39.3 50,39.3 50,39.6 L50,41.1 C50,41.4 49.9611429,41.7 49.8494286,41.7 C49.7352857,41.7 49.5701429,42 49.3928571,42 L40.2857143,42 L33.6071429,42 C33.4298571,42 33.2647143,41.7 33.1505714,41.7 C33.0364286,41.7 33,41.4 33,41.1 L33,39.6 C33,39.3 33.0364286,39.3 33.1505714,39 L33.6071429,39 L40.2857143,39 Z M49.8494286,50 C49.9611429,50.3 50,50.3 50,50.6 L50,52.1 C50,52.4 49.9611429,52.7 49.8494286,52.7 C49.7352857,52.7 49.5701429,53 49.3928571,53 L40.2857143,53 L33.6071429,53 C33.4298571,53 33.2647143,52.7 33.1505714,52.7 C33.0364286,52.7 33,52.4 33,52.1 L33,50.6 C33,50.3 33.0364286,50.3 33.1505714,50 L33.6071429,50 L40.2857143,50 L49.3928571,50 L49.8494286,50 Z M53,49.7272727 L53,55 L40.7777778,55 L31,55 L31,49.7272727 L31,26 L40.7777778,26 L43.2222222,26 L43.2222222,34.4363636 C43.2222222,34.9636364 43.4006667,35.4909091 43.7575556,35.7545455 C44.1144444,36.2818182 44.5471111,36.5454545 45.0555556,36.5454545 L53,36.5454545 L53,49.7272727 Z M46,26 C46.3597686,26.2666667 46.5956433,26.2666667 46.7433628,26.5333333 L52.5520762,32.9333333 C52.6997958,33.2 52.8737236,33.4666667 53,34 L46,34 L46,26 Z" id="ic_import_file"></path>
                </g>
            </g>
        </g>
    </g>
</svg>