<?xml version="1.0" encoding="UTF-8"?>
<svg width="40px" height="43px" viewBox="0 0 40 43" version="1.1" xmlns="http://www.w3.org/2000/svg" xmlns:xlink="http://www.w3.org/1999/xlink">
    <!-- Generator: Sketch 49.2 (51160) - http://www.bohemiancoding.com/sketch -->
    <title>ic_progress_loading</title>
    <desc>Created with Sketch.</desc>
    <defs></defs>
    <g id="Welcome" stroke="none" stroke-width="1" fill="none" fill-rule="evenodd">
        <g id="4-HOME" transform="translate(-1371.000000, -2232.000000)" fill-rule="nonzero">
            <g id="RESULT" transform="translate(252.000000, 1939.000000)">
                <g id="2" transform="translate(0.000000, 293.500000)">
                    <g id="ic_progress_loading" transform="translate(1119.000000, 0.000000)">
                        <path d="M21,0 C19.8954583,0 19,0.820842613 19,1.83334646 L19,9.16665354 C19,10.1791574 19.8954583,11 21,11 C22.1045417,11 23,10.1791574 23,9.16665354 L23,1.83334646 C23,0.820842613 22.1045417,0 21,0 Z" id="Shape" fill="#00B048"></path>
                        <path d="M21,31 C19.8954583,31 19,31.8208426 19,32.8333465 L19,40.1666535 C19,41.1791574 19.8954583,42 21,42 C22.1045417,42 23,41.1791574 23,40.1666535 L23,32.8333465 C23,31.8208426 22.1045417,31 21,31 Z" id="Shape" fill="#DBFFB7"></path>
                        <path d="M13.4540552,10.8181092 L8.18194155,5.54595268 C7.45422873,4.81801577 6.27399802,4.81801577 5.54596483,5.54595268 C4.81801172,6.27388959 4.81801172,7.45401395 5.54596483,8.18187077 L10.8180785,13.4540273 C11.182015,13.8179557 11.659121,14 12.1359867,14 C12.6129326,14 13.0901187,13.8179557 13.453895,13.4540273 C14.1820083,12.7260904 14.1820083,11.5460461 13.4540552,10.8181092 Z" id="Shape" fill="#00B048"></path>
                        <path d="M38.0328038,19.0582972 L34.2031519,19.0582972 C33.1456266,19.0582972 32.2882848,19.8938632 32.2882848,20.9245283 C32.2882848,21.9551934 33.1456266,22.7907594 34.2031519,22.7907594 L38.0328038,22.7907594 C39.0903291,22.7907594 39.9476709,21.9551934 39.9476709,20.9245283 C39.9476709,19.8938632 39.0903291,19.0582972 38.0328038,19.0582972 Z" id="Shape" fill="#F6FFEC"></path>
                        <path d="M30.2771519,27.5226934 C29.5294873,26.7938585 28.3170316,26.7940189 27.5692025,27.5226934 C26.8213734,28.2515283 26.821538,29.4330283 27.5692025,30.1618632 L32.9854304,35.440283 C33.3593038,35.8046604 33.8494367,35.9868491 34.3394873,35.9868491 C34.829538,35.9868491 35.3196709,35.8045802 35.6933797,35.440283 C36.4412089,34.7114481 36.4412089,33.5298679 35.6933797,32.8011132 L30.2771519,27.5226934 Z" id="Shape" fill="#E3FFC6"></path>
                        <path d="M11,21 C11,19.8954583 10.1791574,19 9.16665354,19 L1.83334646,19 C0.820842613,19 0,19.8954583 0,21 C0,22.1045417 0.820842613,23 1.83334646,23 L9.16665354,23 C10.1791574,23 11,22.1045417 11,21 Z" id="Shape" fill="#85DC2D"></path>
                        <path d="M13.4540315,27.5459721 C12.7262338,26.8180093 11.5459151,26.8180093 10.8180372,27.5459721 L5.54596847,32.818076 C4.81801051,33.5458787 4.81801051,34.7262052 5.54596847,35.454088 C5.9099074,35.8180293 6.38701661,36 6.86404572,36 C7.34107484,36 7.81818404,35.8181094 8.18196279,35.454088 L13.4540315,30.181984 C14.1819895,29.4541814 14.1819895,28.2739349 13.4540315,27.5459721 Z" id="Shape" fill="#B8E986"></path>
                    </g>
                </g>
            </g>
        </g>
    </g>
</svg>