<?xml version="1.0" encoding="UTF-8"?>
<svg width="28px" height="37px" viewBox="0 0 28 37" version="1.1" xmlns="http://www.w3.org/2000/svg" xmlns:xlink="http://www.w3.org/1999/xlink">
    <!-- Generator: Sketch 49.2 (51160) - http://www.bohemiancoding.com/sketch -->
    <title>ic_password</title>
    <desc>Created with Sketch.</desc>
    <defs></defs>
    <g id="Welcome" stroke="none" stroke-width="1" fill="none" fill-rule="evenodd">
        <g id="1-Login_2" transform="translate(-1125.000000, -698.000000)" fill="#FFFFFF" fill-rule="nonzero">
            <g id="form" transform="translate(1093.000000, 573.000000)">
                <g id="ic_visibility-1" transform="translate(32.000000, 125.000000)">
                    <path d="M27.2221979,13.875 L24.8888646,13.875 L24.8888646,10.7916426 C24.8888646,4.84107422 20.00425,0 14,0 C7.99575,0 3.11113542,4.84107422 3.11113542,10.7916426 L3.11113542,13.875 L0.777802083,13.875 C0.347885417,13.875 0,14.2197793 0,14.6458574 L0,33.9167148 C0,35.6171973 1.39526042,37 3.11113542,37 L24.8889375,37 C26.6047396,37 28,35.6171973 28,33.9166426 L28,14.6458574 C28,14.2197793 27.6521146,13.875 27.2221979,13.875 Z M16.3288125,29.9774434 C16.3530937,30.1949629 16.2825104,30.4132773 16.1351458,30.5766699 C15.9877812,30.7399902 15.7766146,30.8333574 15.5556042,30.8333574 L12.4444687,30.8333574 C12.2234583,30.8333574 12.0122917,30.7399902 11.8649271,30.5766699 C11.7175625,30.4133496 11.6469062,30.1950352 11.6712604,29.9774434 L12.1619167,25.6046504 C11.3651562,25.0302832 10.8889375,24.1216875 10.8889375,23.125 C10.8889375,21.4245176 12.2841979,20.0416426 14.0000729,20.0416426 C15.7159479,20.0416426 17.1112083,21.4244453 17.1112083,23.125 C17.1112083,24.1216875 16.6349896,25.0302832 15.8382292,25.6046504 L16.3288125,29.9774434 Z M20.2221979,13.875 L7.77780208,13.875 L7.77780208,10.7916426 C7.77780208,7.39140039 10.569125,4.625 14,4.625 C17.430875,4.625 20.2221979,7.39140039 20.2221979,10.7916426 L20.2221979,13.875 Z" id="ic_password"></path>
                </g>
            </g>
        </g>
    </g>
</svg>