<?xml version="1.0" encoding="UTF-8"?>
<svg width="36px" height="36px" viewBox="0 0 36 36" version="1.1" xmlns="http://www.w3.org/2000/svg" xmlns:xlink="http://www.w3.org/1999/xlink">
    <!-- Generator: Sketch 49.2 (51160) - http://www.bohemiancoding.com/sketch -->
    <title>ic_progress_done</title>
    <desc>Created with Sketch.</desc>
    <defs></defs>
    <g id="Welcome" stroke="none" stroke-width="1" fill="none" fill-rule="evenodd">
        <g id="4-HOME" transform="translate(-1373.000000, -2135.000000)" fill="#85DC2D" fill-rule="nonzero">
            <g id="RESULT" transform="translate(252.000000, 1939.000000)">
                <g id="1" transform="translate(0.000000, 194.000000)">
                    <path d="M1139,2 C1129.07486,2 1121,10.0746294 1121,19.9999061 C1121,29.9251827 1129.07486,38 1139,38 C1148.92514,38 1157,29.9251827 1157,19.9999061 C1157,10.0746294 1148.92533,2 1139,2 Z M1147.81819,17.0773211 L1137.0125,28.7593054 C1136.55304,29.256023 1135.94229,29.5294118 1135.29259,29.5294118 C1134.64288,29.5294118 1134.03213,29.256023 1133.57267,28.7593054 L1128.06546,22.8054846 C1127.606,22.3087669 1127.35294,21.6484817 1127.35294,20.9460919 C1127.35294,20.2435081 1127.606,19.5832228 1128.06546,19.0865052 C1128.52474,18.5897875 1129.13549,18.3162048 1129.78538,18.3162048 C1130.43508,18.3162048 1131.04601,18.5897875 1131.50529,19.0866992 L1135.29241,23.1807393 L1144.378,13.3583417 C1144.83746,12.861624 1145.44822,12.5882353 1146.09792,12.5882353 C1146.74762,12.5882353 1147.35838,12.861624 1147.81784,13.3583417 C1148.76654,14.383986 1148.76654,16.0520648 1147.81819,17.0773211 Z" id="ic_progress_done"></path>
                </g>
            </g>
        </g>
    </g>
</svg>