<?xml version="1.0" encoding="UTF-8"?>
<svg width="19px" height="19px" viewBox="0 0 19 19" version="1.1" xmlns="http://www.w3.org/2000/svg" xmlns:xlink="http://www.w3.org/1999/xlink">
    <!-- Generator: Sketch 49.2 (51160) - http://www.bohemiancoding.com/sketch -->
    <title>ic_remember_ticked</title>
    <desc>Created with Sketch.</desc>
    <defs></defs>
    <g id="Welcome" stroke="none" stroke-width="1" fill="none" fill-rule="evenodd">
        <g id="1-Login_2" transform="translate(-1110.000000, -819.000000)" fill="#85DC2D" fill-rule="nonzero">
            <path d="M1119.5,819 C1114.26173,819 1110,823.26161 1110,828.49995 C1110,833.738291 1114.26173,838 1119.5,838 C1124.73827,838 1129,833.738291 1129,828.49995 C1129,823.26161 1124.73837,819 1119.5,819 Z M1124.95507,826.895329 L1118.9867,832.863665 C1118.73293,833.117438 1118.39558,833.257113 1118.03673,833.257113 C1117.67788,833.257113 1117.34054,833.117438 1117.08676,832.863665 L1114.04493,829.821852 C1113.79116,829.568079 1113.65138,829.230739 1113.65138,828.871887 C1113.65138,828.512936 1113.79116,828.175596 1114.04493,827.921823 C1114.29861,827.668049 1114.63595,827.528276 1114.9949,827.528276 C1115.35376,827.528276 1115.6912,827.668049 1115.94487,827.921922 L1118.03663,830.01357 L1123.05493,824.995299 C1123.3087,824.741526 1123.64605,824.601851 1124.0049,824.601851 C1124.36375,824.601851 1124.70109,824.741526 1124.95487,824.995299 C1125.47887,825.519302 1125.47887,826.371525 1124.95507,826.895329 Z" id="ic_remember_ticked"></path>
        </g>
    </g>
</svg>